<?xml version="1.0" encoding="utf-8"?>
<!-- Generator: Adobe Illustrator 27.3.1, SVG Export Plug-In . SVG Version: 6.00 Build 0)  -->
<svg version="1.1" id="Layer_1" xmlns="http://www.w3.org/2000/svg" xmlns:xlink="http://www.w3.org/1999/xlink" x="0px" y="0px"
	 viewBox="0 0 505 506.7" style="enable-background:new 0 0 505 506.7;" xml:space="preserve">
<g>
	<path d="M485.2,70.5c-11.7-20-30.3-41-59.4-55.2c-19.7-9.6-41.3-14.3-63.2-14.5L252.5,0v1.5l0-1.5H146.7
		c-27.6,0-54.8,7.1-78.6,21.2C46.5,34,23.9,54.3,10.5,86.2C3.4,103.2,0,121.6,0,140l0,225.2c0,19.6,3.9,39.1,11.8,57.1
		C24,450,48.4,483.9,97.3,499.4c13.7,4.4,28,6.4,42.3,6.5l223.5,0.8c28.6,0.1,56.8-8.1,80.5-24.2c21.2-14.4,42.3-37.2,54.4-73.4
		c4.8-14.4,7.1-29.5,7.1-44.6l0-219.7C505,118.7,498.4,93,485.2,70.5z M381.2,317.1c0,0-32.7,78.9-126.7,80.7
		c-94,1.8-133.9-79.8-138.9-96.9C95.9,234,125.2,160,187.9,129.3c17.7-8.7,41.7-16.3,60.6-16.3s54.7,2,94,32.4
		c0,0,45.3,33.4,51.5,94.7C399,289.4,381.2,317.1,381.2,317.1z M423.4,104.8c0,0-3.7,9.9-11.7,14.8c-12.6,7.3-22.8,4.7-27.6,2.7
		c-9.8-3.7-14.1-11.5-14.1-11.5s-9.6-11.7-1.7-30.1c5.3-11,15.6-15.9,26.9-16.5c7.3-0.4,18.2,4,24.5,12.7
		C429.3,90,423.4,104.8,423.4,104.8z"/>
	<circle cx="251.8" cy="256.4" r="95"/>
</g>
</svg>
