<svg id="eKLgiRIWHo11" xmlns="http://www.w3.org/2000/svg" xmlns:xlink="http://www.w3.org/1999/xlink" viewBox="0 0 300 300" shape-rendering="geometricPrecision" text-rendering="geometricPrecision"><g transform="matrix(-9.999984 0.018006-.018006-9.999984 1064.429809 1443.43364)"><path d="M95.640721,112.976174c-1.08046-.030171-4.961117,8.350624-4.499999,9.309524.45731.950981,8.614935.924291,9-.10825.42466-1.138715-3.419541-9.171103-4.500001-9.201274Z" transform="matrix(-.999995-.003176 0.003176-.999995 186.443803 254.929726)" fill="none" stroke="#3f5787" stroke-width="0.6"/><path d="M95.640721,112.976174c-1.08046-.030171-4.961117,8.350624-4.499999,9.309524.45731.950981,8.614935.924291,9-.10825.42466-1.138715-3.419541-9.171103-4.500001-9.201274Z" transform="matrix(-.999995-.003176-.003176 0.999995 187.228813 6.841174)" fill="none" stroke="#3f5787" stroke-width="0.6"/><path d="M95.640721,112.976174c-1.08046-.030171-4.961117,8.350624-4.499999,9.309524.45731.950981,8.614935.924291,9-.10825.42466-1.138715-3.419541-9.171103-4.500001-9.201274Z" transform="matrix(.99692-.078421-.078421-.99692-3.276668 249.183543)" fill="none" stroke="#3f5787" stroke-width="0.6"/><path d="M95.640721,112.976174c-1.08046-.030171-4.961117,8.350624-4.499999,9.309524.45731.950981,8.614935.924291,9-.10825.42466-1.138715-3.419541-9.171103-4.500001-9.201274Z" transform="matrix(.998837 0.048219 0.048219-.998837-1.470891 237.327897)" fill="none" stroke="#3f5787" stroke-width="0.6"/></g></svg>
