<?xml version="1.0" encoding="utf-8"?>
<!-- Generator: Adobe Illustrator 27.3.1, SVG Export Plug-In . SVG Version: 6.00 Build 0)  -->
<svg version="1.1" id="Layer_1" xmlns="http://www.w3.org/2000/svg" xmlns:xlink="http://www.w3.org/1999/xlink" x="0px" y="0px"
	 viewBox="0 0 1080 1080" style="enable-background:new 0 0 1080 1080;" xml:space="preserve">
<style type="text/css">
	.st0{fill:url(#SVGID_1_);}
	.st1{opacity:0.5;fill:url(#SVGID_00000127736172472082338630000001290380928843667844_);enable-background:new    ;}
	.st2{fill:url(#SVGID_00000037652436041743934740000003297405930255372948_);}
</style>
<g>
	
		<radialGradient id="SVGID_1_" cx="36.337" cy="1034.447" r="34.1125" gradientTransform="matrix(9.4934 0 0 -9.4934 3.0235 10273.3994)" gradientUnits="userSpaceOnUse">
		<stop  offset="0" style="stop-color:#FFE343"/>
		<stop  offset="0.5492" style="stop-color:#FFE241"/>
		<stop  offset="0.7469" style="stop-color:#FFDF3A"/>
		<stop  offset="0.8874" style="stop-color:#FEDA2F"/>
		<stop  offset="1" style="stop-color:#FED31E"/>
	</radialGradient>
	<path class="st0" d="M561.6,137.2l59.3,120.3l0,613l-77.6-40.8c-3.3-1.8-7.2-1.8-10.5,0L295.8,954.3c-19,10-41.4-6.2-37.8-27.5
		l45.5-263.7c0.5-3.6-0.5-7.5-3.3-10L108.8,466.2c-15.4-15.2-6.9-41.4,14.4-44.5l264.7-38.6c3.6-0.5,6.9-2.8,8.5-6.2l118.3-240
		C524.3,117.9,552.1,117.9,561.6,137.2z"/>
	
		<radialGradient id="SVGID_00000114043311770074353350000007935745697959184276_" cx="31.9089" cy="1032.3197" r="37.4987" gradientTransform="matrix(11.3187 0 0 -11.3187 1.7886 12249.0078)" gradientUnits="userSpaceOnUse">
		<stop  offset="0" style="stop-color:#FF8000;stop-opacity:0"/>
		<stop  offset="0.5434" style="stop-color:#FD7F00;stop-opacity:0.5434"/>
		<stop  offset="0.7391" style="stop-color:#F67C00;stop-opacity:0.7391"/>
		<stop  offset="0.8781" style="stop-color:#EB7600;stop-opacity:0.8781"/>
		<stop  offset="0.9903" style="stop-color:#DA6E00;stop-opacity:0.9903"/>
		<stop  offset="1" style="stop-color:#D86D00"/>
	</radialGradient>
	<path style="opacity:0.5;fill:url(#SVGID_00000114043311770074353350000007935745697959184276_);enable-background:new    ;" d="
		M562.6,136.2l59.3,127.3l0.5,612.5l-78.1-41.1c-3.4-1.8-7.3-1.8-10.6,0l-239,125.6c-19.2,10.1-41.8-6.2-38.2-27.8l45.9-266
		c0.5-3.6-0.5-7.5-3.4-10.1L105.8,468.1c-15.6-15.3-7-41.8,14.5-44.9l267.1-38.9c3.6-0.5,7-2.9,8.6-6.2l119.4-242.2
		C524.9,116.7,553,116.7,562.6,136.2z"/>
	
		<radialGradient id="SVGID_00000023276210366788111100000013033304541288507025_" cx="54.8814" cy="1023.2194" r="45.8304" gradientTransform="matrix(9.7807 0 0 -9.7807 3.2193 10586.8379)" gradientUnits="userSpaceOnUse">
		<stop  offset="0" style="stop-color:#A3541E;stop-opacity:0.5"/>
		<stop  offset="0.5109" style="stop-color:#A5551D;stop-opacity:0.7555"/>
		<stop  offset="0.695" style="stop-color:#AC5819;stop-opacity:0.8475"/>
		<stop  offset="0.8261" style="stop-color:#B75E12;stop-opacity:0.9131"/>
		<stop  offset="0.9315" style="stop-color:#C86609;stop-opacity:0.9657"/>
		<stop  offset="1" style="stop-color:#D86D00"/>
	</radialGradient>
	<path style="fill:url(#SVGID_00000023276210366788111100000013033304541288507025_);" d="M805.6,947.4c-1.8,1.3-6.3,3.9-12,0.8
		L552.6,821.5c-3.9-2.1-8.1-3.1-12.3-3.1s-8.4,1-12.3,3.1L287,948.2c-5.8,2.9-10.2,0.3-12-0.8c-1.8-1.3-5.8-5-4.5-11.3L316.1,668
		c1.6-8.6-1.3-17.3-7.6-23.6L113.4,454.3c-4.7-4.5-3.7-9.7-2.9-11.8c0.8-2.1,2.9-6.8,9.2-7.9l269.5-39.3c8.6-1.3,16.2-6.8,19.9-14.4
		l120.5-244.3c2.9-5.8,8.1-6.3,10.2-6.3c2.1,0,7.3,0.5,10.2,6.3L670.4,381c3.9,7.9,11.3,13.4,19.9,14.4l269.5,39.3
		c6.3,1,8.6,5.8,9.2,7.9c0.8,2.1,1.8,7.3-2.9,11.8L776.7,638.9c-9.7,9.4-14.1,23.3-12,36.7l44.8,260.6
		C811.1,942.7,807.1,946.4,805.6,947.4z M824.9,933.8l-44.8-260.6c-1.6-8.6,1.3-17.3,7.6-23.6L977.1,465
		c15.7-15.5,7.1-42.2-14.7-45.3l-269.5-39.3c-3.7-0.5-7.1-2.9-8.6-6.3L563.8,129.8c-9.7-19.6-37.7-19.6-47.7,0L395.7,374.1
		c-1.6,3.4-5,5.8-8.6,6.3l-269.5,39.3c-21.7,3.1-30.4,29.9-14.7,45.3L298,655.2c2.6,2.6,3.9,6.5,3.4,10.2l-46.4,268.4
		c-3.7,21.7,19.1,38.2,38.5,28l241.2-126.8c3.4-1.8,7.3-1.8,10.7,0l241.2,126.8C805.8,972,828.6,955.5,824.9,933.8z"/>
</g>
</svg>
