<?xml version="1.0" encoding="UTF-8"?>
<svg id="Layer_1" data-name="Layer 1" xmlns="http://www.w3.org/2000/svg" viewBox="0 0 1920 90">
  <defs>
    <style>
      .cls-1 {
        stroke: #000;
        stroke-miterlimit: 10;
        stroke-width: 2.64px;
      }
    </style>
  </defs>
  <path class="cls-1" d="m49.32,7.54h-4.88v65.44c0,4.87,3.31,8.83,7.39,8.83v1.41h-21.48v-1.41c2.04,0,3.89-.99,5.23-2.58,1.34-1.6,2.16-3.81,2.16-6.25V7.54h-4.88c-8.77.28-16.01,8.35-16.83,18.84h0s-1.18.01-1.18.01l.41-5.67,1.06-14.59h49.54l1.06,14.59.41,5.67h-1.17c-.82-10.5-8.07-18.56-16.83-18.85Z"/>
  <path class="cls-1" d="m139.14,72.97c0,4.88,3.31,8.83,7.39,8.83v1.42h-21.47v-1.42c4.08,0,7.39-3.95,7.39-8.83v-21.06c0-3.58-2.43-6.48-5.42-6.48h-27.62c-3,0-5.43,2.9-5.43,6.48v21.06c0,4.87,3.31,8.83,7.39,8.83h0v1.42h-21.47v-1.42c4.08,0,7.39-3.95,7.39-8.83V16.37c0-4.87-3.31-8.83-7.39-8.83v-1.41h21.47v1.41h0c-4.08,0-7.39,3.95-7.39,8.83v21.22c0,3.58,2.43,6.48,5.42,6.48h27.62c2.99,0,5.42-2.9,5.42-6.48v-21.22c0-4.88-3.31-8.83-7.39-8.83v-1.41h21.47v1.41c-4.08,0-7.39,3.95-7.39,8.83v56.59Z"/>
  <path class="cls-1" d="m195.8,81.81c8.97,0,16.47-8.17,17.31-18.85h1.18l-1.47,20.25h-51.04v-1.42c2.04,0,3.89-.99,5.23-2.58,1.33-1.6,2.16-3.8,2.16-6.25V16.38c0-4.87-3.31-8.83-7.39-8.83v-1.41h49.86l1.47,20.25h-1.18c-.83-10.69-8.33-18.86-17.31-18.86h-18.76v29.93c0,3.57,2.42,6.48,5.42,6.48h6.75c5.94,0,10.76-5.76,10.76-12.86h1.18v27.1h-1.18c0-7.1-4.82-12.86-10.76-12.86h-6.75c-3,0-5.42,2.9-5.42,6.48v30.01h19.95Z"/>
  <path class="cls-1" d="m326.38,16.37v56.56c0,4.9,3.32,8.87,7.42,8.87v1.42h-17.22l-33-69.79c-.48-1.02-1.53-1.53-2.52-1.1-.83.36-1.35,1.36-1.35,2.41v58.32c0,4.83,3.28,8.74,7.32,8.74v1.42h-15.85v-1.42h.07c4.04,0,7.32-3.92,7.32-8.74V16.37c0-4.87-3.31-8.83-7.38-8.83v-1.41h17.22l32.96,69.76c.37.78,1.05,1.26,1.8,1.26.58,0,1.09-.27,1.46-.73.38-.44.61-1.06.61-1.75V16.37c0-4.87-3.31-8.83-7.39-8.83v-1.41h15.95v1.41h-.04c-4.08,0-7.39,3.95-7.39,8.83Z"/>
  <path class="cls-1" d="m408.62,81.81v1.41h-22.72v-1.41c4.3,0,7.28-5.12,5.78-9.94l-7.05-22.58c-.93-2.98-4.13-3.82-6.02-1.57l-21.46,25.64c-.79.94-1.18,2.17-1.18,3.39,0,1.49.57,2.96,1.68,3.91.43.37.91.66,1.41.85.5.19,1.03.29,1.56.29v1.41h-15.81v-1.41c3.37,0,6.4-2.51,7.56-6.31l18.27-59.45c.22-.73.33-1.47.33-2.19,0-3.35-2.27-6.32-5.3-6.32v-1.41h14.18l21.64,69.74c.55,1.78,1.54,3.26,2.79,4.3s2.75,1.63,4.34,1.63Zm-27.64-44.25l-7.91-25.38-16.88,54.99c-.62,2.01,1.48,3.61,2.75,2.1l20.8-24.86c1.5-1.8,1.99-4.47,1.24-6.84Z"/>
  <path class="cls-1" d="m447.49,7.54h-4.88v65.44c0,4.87,3.31,8.83,7.39,8.83v1.41h-21.48v-1.41c2.04,0,3.89-.99,5.23-2.58,1.34-1.6,2.16-3.81,2.16-6.25V7.54h-4.88c-8.77.28-16.01,8.35-16.83,18.84h0s-1.18.01-1.18.01l.41-5.67,1.06-14.59h49.54l1.06,14.59.41,5.67h-1.17c-.82-10.5-8.07-18.56-16.83-18.85Z"/>
  <path class="cls-1" d="m499.5,81.8h0v1.42h-21.47v-1.42c2.04,0,3.89-.99,5.22-2.59,1.34-1.6,2.16-3.81,2.16-6.24V16.37c0-4.88-3.3-8.83-7.39-8.83v-1.41h21.47v1.41h0c-4.08,0-7.39,3.95-7.39,8.83v56.61c0,4.87,3.3,8.83,7.39,8.83Z"/>
  <path class="cls-1" d="m579.18,44.68c-.03,7.2-1.86,15.09-5.07,20.9-3.22,5.86-7.91,10.12-12.52,13.75-1.46,1.13-3.02,2.05-4.65,2.82-7.18,3.37-15.19,3.35-22.41.07-1.71-.78-3.35-1.73-4.85-2.89-4.61-3.63-9.3-7.88-12.52-13.75-3.21-5.81-5.05-13.7-5.07-20.9.03-7.2,1.86-15.08,5.07-20.9,3.22-5.86,7.91-10.11,12.52-13.75,1.5-1.16,3.14-2.11,4.85-2.89,7.21-3.27,15.22-3.29,22.41.07,1.63.76,3.2,1.69,4.65,2.82,4.61,3.64,9.3,7.89,12.52,13.75,3.21,5.82,5.05,13.7,5.07,20.9Zm-7.98,0c0-5.86-.75-11.71-2.49-17.46-1.8-5.67-4.36-11.07-8.55-14.9-.17-.15-.33-.29-.51-.44-8.41-7.06-19.67-7.06-28.07,0-.17.14-.34.29-.51.44-4.19,3.83-6.75,9.23-8.55,14.9-1.73,5.74-2.49,11.6-2.49,17.46s.75,11.72,2.49,17.46c1.8,5.66,4.36,11.06,8.55,14.89.17.15.33.29.51.44,8.41,7.06,19.67,7.06,28.07,0,.17-.14.34-.29.51-.44,4.19-3.83,6.75-9.23,8.55-14.89,1.73-5.74,2.49-11.61,2.49-17.46Z"/>
  <path class="cls-1" d="m646.99,16.37v56.56c0,4.9,3.32,8.87,7.42,8.87v1.42h-17.22l-33-69.79c-.48-1.02-1.53-1.53-2.52-1.1-.83.36-1.35,1.36-1.35,2.41v58.32c0,4.83,3.28,8.74,7.32,8.74v1.42h-15.85v-1.42h.07c4.04,0,7.32-3.92,7.32-8.74V16.37c0-4.87-3.31-8.83-7.38-8.83v-1.41h17.22l32.96,69.76c.37.78,1.05,1.26,1.8,1.26.58,0,1.09-.27,1.46-.73.38-.44.61-1.06.61-1.75V16.37c0-4.87-3.31-8.83-7.39-8.83v-1.41h15.95v1.41h-.04c-4.08,0-7.39,3.95-7.39,8.83Z"/>
  <path class="cls-1" d="m729.23,81.81v1.41h-22.72v-1.41c4.3,0,7.28-5.12,5.78-9.94l-7.05-22.58c-.93-2.98-4.13-3.82-6.02-1.57l-21.46,25.64c-.79.94-1.18,2.17-1.18,3.39,0,1.49.57,2.96,1.68,3.91.43.37.91.66,1.41.85.5.19,1.03.29,1.56.29v1.41h-15.81v-1.41c3.37,0,6.4-2.51,7.56-6.31l18.27-59.45c.22-.73.33-1.47.33-2.19,0-3.35-2.27-6.32-5.3-6.32v-1.41h14.18l21.64,69.74c.55,1.78,1.54,3.26,2.79,4.3s2.75,1.63,4.34,1.63Zm-27.64-44.25l-7.91-25.38-16.88,54.99c-.62,2.01,1.48,3.61,2.75,2.1l20.8-24.86c1.5-1.8,1.99-4.47,1.24-6.84Z"/>
  <path class="cls-1" d="m792.72,83.22h-52.5v-1.41c4.08,0,7.39-3.95,7.39-8.83V16.37c0-4.87-3.31-8.83-7.39-8.83v-1.41h21.47v1.41h0c-4.08,0-7.39,3.95-7.39,8.83v58.96c0,3.58,2.43,6.48,5.42,6.48h12.09c8.37,0,16.2-4.94,20.92-13.18v14.59Z"/>
  <path class="cls-1" d="m896.77,63.2c0,12.53-8.56,21.47-22.07,21.47s-21.92-9.14-21.92-9.14l-3.21-19.96,1.16-.27c5.61,17.36,14.08,28.16,24.92,28.16,8.85,0,15.22-7.01,15.22-16.58,0-22.74-39.39-15.05-39.39-41.68,0-11.79,9.32-20.53,22.26-20.53,6.28,0,13.65,3.57,18.7,6.62l3.21,19.96-1.16.27c-5.71-15.26-12.46-25.64-22.36-25.64-8.47,0-14.75,7.21-14.75,15.95,0,21.37,39.39,14,39.39,41.37Z"/>
  <path class="cls-1" d="m946.06,81.81c8.97,0,16.47-8.17,17.31-18.85h1.18l-1.47,20.25h-51.03v-1.42c2.04,0,3.89-.99,5.23-2.58,1.33-1.6,2.16-3.8,2.16-6.25V16.38c0-4.87-3.31-8.83-7.39-8.83v-1.41h49.86l1.47,20.25h-1.18c-.83-10.69-8.33-18.86-17.31-18.86h-18.76v29.93c0,3.57,2.42,6.48,5.42,6.48h6.75c5.95,0,10.76-5.76,10.76-12.86h1.18v27.1h-1.18c0-7.1-4.82-12.86-10.76-12.86h-6.75c-3,0-5.42,2.9-5.42,6.48v30.01h19.95Z"/>
  <path class="cls-1" d="m1009.09,45.29l31.08,35.47c.63.68,1.44,1.05,2.28,1.05v1.41h-16.17v-1.41c2.15,0,3.18-3.17,1.58-4.9l-24.49-28.29c-1.99-2.14-4.56-3.32-7.23-3.32v27.68c0,4.88,3.31,8.83,7.39,8.83h.03v1.41h-21.5v-1.41c4.08,0,7.39-3.95,7.39-8.83V16.36c0-2.43-.83-4.64-2.16-6.24-1.33-1.6-3.18-2.58-5.22-2.58v-1.41h32.94c8.31.38,15.52,7.88,16.15,17.82.23,3.63-.67,7.23-2.25,10.45-3.42,6.93-9.96,10.88-16.71,10.92l-3.11-.03Zm-12.93-1.3h12.3c5.43,0,10.75-2.95,13.61-8.45,1.55-2.92,2.45-6.41,2.45-10.12,0-.68-.03-1.36-.1-2.01-.79-9.22-7.77-15.88-15.5-15.88h-12.75v36.45h0Z"/>
  <path class="cls-1" d="m1089.48,83.22h-9.83l-18.75-65.59c-1.72-6.03-6.47-10.08-11.8-10.08v-1.41h17.2l19.73,69.05c.17.59.48,1.07.89,1.42.4.34.9.54,1.41.54,1.04,0,1.97-.79,2.31-1.96l15.91-55.7c1.67-5.86-1.97-11.94-7.15-11.94h-5.1v-1.41h17.23l-22.04,77.08Z"/>
  <path class="cls-1" d="m1145.48,81.8h0v1.42h-21.47v-1.42c2.04,0,3.89-.99,5.22-2.59,1.34-1.6,2.16-3.81,2.16-6.24V16.37c0-4.88-3.31-8.83-7.39-8.83v-1.41h21.47v1.41h0c-4.08,0-7.39,3.95-7.39,8.83v56.61c0,4.87,3.31,8.83,7.39,8.83Z"/>
  <path class="cls-1" d="m1216.31,57l-3.21,19.99s-9.69,8.78-21.58,7.57c-5.42-.68-11.19-2.22-15.86-5.77-4.6-3.58-9.3-7.76-12.52-13.53-3.22-5.73-5.05-13.49-5.08-20.57.03-7.08,1.86-14.85,5.08-20.57,3.22-5.77,7.91-9.95,12.52-13.53,4.67-3.54,10.44-5.09,15.86-5.77,11.89-1.21,18.92,5.8,18.92,5.8l.05.48,3.14,19.52-1.16.27c-6.59-25.36-17.12-25.54-21.2-24.97-.38.08-.57.11-.57.11-4.95.98-9.65,3.35-13.62,6.82-4.19,3.77-6.75,9.08-8.55,14.66-1.73,5.65-2.49,11.42-2.49,17.18s.76,11.53,2.49,17.18c1.8,5.58,4.35,10.89,8.55,14.66,3.97,3.47,8.67,5.84,13.62,6.82,0,0,.19.04.57.11,4.85.91,17.3-1.37,23.89-26.73l1.16.27Z"/>
  <path class="cls-1" d="m1262.92,81.81c8.97,0,16.47-8.17,17.31-18.85h1.18l-1.47,20.25h-51.04v-1.42c2.04,0,3.89-.99,5.23-2.58,1.33-1.6,2.16-3.8,2.16-6.25V16.38c0-4.87-3.31-8.83-7.39-8.83v-1.41h49.86l1.47,20.25h-1.18c-.83-10.69-8.33-18.86-17.31-18.86h-18.76v29.93c0,3.57,2.42,6.48,5.42,6.48h6.75c5.95,0,10.76-5.76,10.76-12.86h1.18v27.1h-1.18c0-7.1-4.82-12.86-10.76-12.86h-6.75c-3,0-5.42,2.9-5.42,6.48v30.01h19.95Z"/>
  <path class="cls-1" d="m1343.78,63.2c0,12.53-8.56,21.47-22.07,21.47s-21.92-9.14-21.92-9.14l-3.21-19.96,1.16-.27c5.61,17.36,14.08,28.16,24.92,28.16,8.85,0,15.22-7.01,15.22-16.58,0-22.74-39.38-15.05-39.38-41.68,0-11.79,9.32-20.53,22.26-20.53,6.28,0,13.65,3.57,18.7,6.62l3.21,19.96-1.16.27c-5.71-15.26-12.46-25.64-22.36-25.64-8.47,0-14.75,7.21-14.75,15.95,0,21.37,39.39,14,39.39,41.37Z"/>
  <path class="cls-1" d="m1464.55,81.81v1.41h-22.72v-1.41c4.3,0,7.28-5.12,5.78-9.94l-7.05-22.58c-.93-2.98-4.13-3.82-6.02-1.57l-21.46,25.64c-.79.94-1.18,2.17-1.18,3.39,0,1.49.57,2.96,1.68,3.91.43.37.91.66,1.41.85s1.03.29,1.56.29v1.41h-15.81v-1.41c3.37,0,6.4-2.51,7.56-6.31l18.27-59.45c.22-.73.33-1.47.33-2.19,0-3.35-2.27-6.32-5.3-6.32v-1.41h14.18l21.64,69.74c.55,1.78,1.55,3.26,2.79,4.3,1.24,1.04,2.76,1.63,4.34,1.63Zm-27.64-44.25l-7.91-25.38-16.88,54.99c-.62,2.01,1.48,3.61,2.75,2.1l20.8-24.86c1.5-1.8,1.99-4.47,1.24-6.84Z"/>
  <path class="cls-1" d="m1529.57,57l-3.21,19.99s-9.69,8.78-21.58,7.57c-5.42-.68-11.19-2.22-15.86-5.77-4.6-3.58-9.3-7.76-12.52-13.53-3.22-5.73-5.05-13.49-5.08-20.57.03-7.08,1.86-14.85,5.08-20.57,3.22-5.77,7.91-9.95,12.52-13.53,4.67-3.54,10.44-5.09,15.86-5.77,11.89-1.21,18.92,5.8,18.92,5.8l.05.48,3.14,19.52-1.16.27c-6.59-25.36-17.12-25.54-21.2-24.97-.38.08-.57.11-.57.11-4.95.98-9.65,3.35-13.62,6.82-4.19,3.77-6.75,9.08-8.55,14.66-1.73,5.65-2.49,11.42-2.49,17.18s.76,11.53,2.49,17.18c1.8,5.58,4.35,10.89,8.55,14.66,3.97,3.47,8.67,5.84,13.62,6.82,0,0,.19.04.57.11,4.85.91,17.3-1.37,23.89-26.73l1.16.27Z"/>
  <path class="cls-1" d="m1601.39,81.81v1.41h-22.72v-1.41c4.3,0,7.28-5.12,5.78-9.94l-7.05-22.58c-.93-2.98-4.13-3.82-6.02-1.57l-21.46,25.64c-.79.94-1.18,2.17-1.18,3.39,0,1.49.57,2.96,1.68,3.91.43.37.91.66,1.41.85s1.03.29,1.56.29v1.41h-15.81v-1.41c3.37,0,6.4-2.51,7.56-6.31l18.27-59.45c.22-.73.33-1.47.33-2.19,0-3.35-2.27-6.32-5.3-6.32v-1.41h14.18l21.64,69.74c.55,1.78,1.55,3.26,2.79,4.3,1.24,1.04,2.76,1.63,4.34,1.63Zm-27.64-44.25l-7.91-25.38-16.88,54.99c-.62,2.01,1.48,3.61,2.75,2.1l20.8-24.86c1.5-1.8,1.99-4.47,1.24-6.84Z"/>
  <path class="cls-1" d="m1669.42,44.49v.33c-.06,21.29-16.59,38.47-34.42,38.39h-10.07s-14.1-.03-14.1-.03v-1.39c4.09,0,7.41-3.96,7.41-8.85V16.37c0-4.89-3.32-8.85-7.41-8.85v-1.38h14.1s10.07-.03,10.07-.03c17.83-.08,34.36,17.1,34.42,38.39Zm-6.69.04c-.04-10.65-3.68-20.26-9.54-27.21l-.12-.13c-5.3-6.25-14.48-9.73-21.92-9.7h-.81c-2.99.02-5.42,2.93-5.4,6.52v61.36c0,3.57,2.42,6.46,5.4,6.46h.81c7.44.04,16.62-3.45,21.92-9.7l.12-.13c5.86-6.95,9.5-16.55,9.54-27.21v-.26Z"/>
  <path class="cls-1" d="m1716.03,81.81c8.97,0,16.47-8.17,17.31-18.85h1.18l-1.47,20.25h-51.04v-1.42c2.04,0,3.89-.99,5.23-2.58,1.33-1.6,2.16-3.8,2.16-6.25V16.38c0-4.87-3.31-8.83-7.39-8.83v-1.41h49.86l1.47,20.25h-1.18c-.83-10.69-8.33-18.86-17.31-18.86h-18.76v29.93c0,3.57,2.42,6.48,5.42,6.48h6.75c5.95,0,10.76-5.76,10.76-12.86h1.18v27.1h-1.18c0-7.1-4.82-12.86-10.76-12.86h-6.75c-3,0-5.42,2.9-5.42,6.48v30.01h19.95Z"/>
  <path class="cls-1" d="m1828.93,83.22h-21.49v-1.41c2.04,0,3.89-.99,5.23-2.59,1.33-1.6,2.16-3.81,2.16-6.25V15.88c0-1.67-1.9-2.19-2.5-.68l-27.06,67.42c-.08.19-.19.33-.33.44-.14.1-.3.16-.47.16-.35,0-.68-.26-.81-.66l-22.78-67.25c-.56-1.66-2.63-1.18-2.63.61v57.05c0,2.45.83,4.65,2.16,6.25,1.34,1.6,3.19,2.59,5.23,2.59v1.41h-15.94v-1.41c4.09,0,7.4-3.96,7.4-8.84V16.38c0-2.45-.83-4.65-2.16-6.25-1.34-1.6-3.19-2.59-5.23-2.59v-1.41h16.26l19.21,56.84c1.2,3.53,5.34,3.69,6.72.25l22.92-57.07h0s14.08-.01,14.08-.01v1.41c-2.04,0-3.89.99-5.23,2.59-1.34,1.6-2.16,3.81-2.16,6.25v56.59c0,4.88,3.31,8.84,7.4,8.84v1.41Z"/>
  <path class="cls-1" d="m1904.84,7.54c-5.09,0-9.82,3.09-12.58,8.2l-15.36,28.49c-.62,1.15-.95,2.5-.95,3.87v24.87c0,4.88,3.31,8.83,7.39,8.83v1.41h-21.47v-1.41c4.08,0,7.39-3.95,7.39-8.83v-26c0-.54-.13-1.07-.37-1.52l-16.78-31.01c-2.33-4.31-6.34-6.91-10.63-6.91v-1.41h22.28v1.41c-2.9,0-4.64,3.84-3.07,6.74l13.21,24.38c.22.4.51.72.85.94.34.22.73.34,1.12.34,1.21,0,2.33-.73,2.99-1.95l12.82-23.81c1.54-2.87-.18-6.64-3.03-6.64v-1.41h16.2v1.41Z"/>
</svg>