<?xml version="1.0" encoding="UTF-8"?>
<svg id="Layer_1" data-name="Layer 1" xmlns="http://www.w3.org/2000/svg" viewBox="0 0 1080 1080">
  <defs>
    <style>
      .cls-1 {
        fill: #231f20;
      }
    </style>
  </defs>
  <path class="cls-1" d="m363.91,307.37l.2-.05s-7.51-18.81-13.83-34.88l479.45-1.22,40.28-.09c5.9-.01,11.46-2.14,15.12-5.77l20.87-29.71H338.32c-2.08-14.77,1.59-27.08,15.39-36.12,32.72-21.44,315.5-166.4,335.04-176.41.7-.36,1.26-.85,1.63-1.44L704.04,0l-406.96,203.03s-22.58,12.02-22.22,32.62H1.46l24.18,30.29c3.66,4.59,10.07,7.37,16.96,7.36l51.38-.12,194.75-.44,118.56,272.67s-157.42,296.21-159.45,299.82c-3.05,5.43-7.16,12.42-7.16,12.42l13.72-6.21c1.61-.72,2.87-1.85,3.61-3.18l4.74-8.67,88.98-168.4c.74-1.38,2.45-2.3,4.36-2.3h104.54c1.99,0,30.12,60.98,47.45,97.85,23.29,49.55,50.55,91.53,16.64,113.74-31.75,20.8-298.73,157.8-332.59,175.16-2.3,1.2-4.17,2.84-5.4,4.78l-12.34,19.58,406.96-203.01s33.4-17.8,18.34-47.16c-2-3.89-181.01-400.96-235.78-522.45Zm89.85,345.76c.51,1.19-.61,2.42-2.21,2.42h-84.8c-1.7,0-2.86-1.37-2.2-2.6l47.4-87.88c.76-1.4,3.31-1.33,3.93.12l37.87,87.95Z"/>
  <path class="cls-1" d="m1081.46,288.18c-2.81,5.98-246.7,557.9-248.13,560.56-3.81,7.08-12.67,11.65-22.43,11.65h-36.11c-4.48,0-8.86-1.01-12.62-2.91-2.08-1.04-3.91-2.32-5.46-3.8-1.55-1.48-2.8-3.14-3.7-4.93l-84.62-180.09h-58.12c-.3,0-.59-.01-.89-.04-3.46-.26-6.35-2.18-7.64-4.71l-4.29-8.37,64.31-.07-151.54-347.92c-2.03-4.87-7.55-8.33-14.02-8.8l-10.28-.06c-2.35-.01-4.57-.79-6.18-2.14l-7.82-6.61,83.89-.05c3.69,0,6.98,1.82,8.23,4.56l247.17,544.24c1.38,2.75,6.33,2.75,7.7-.01l244.21-539.72c.36-.77,1.01-1.43,1.87-1.89l16.49-8.89Z"/>
</svg>