<?xml version="1.0" encoding="utf-8"?>
<!-- Generator: Adobe Illustrator 27.3.1, SVG Export Plug-In . SVG Version: 6.00 Build 0)  -->
<svg version="1.1" id="Layer_1" xmlns="http://www.w3.org/2000/svg" xmlns:xlink="http://www.w3.org/1999/xlink" x="0px" y="0px"
	 viewBox="0 0 1080 1080" style="enable-background:new 0 0 1080 1080;" xml:space="preserve">
<style type="text/css">
	.st0{fill:#231F20;}
</style>
<g>
	<path class="st0" d="M362.5,307.4l0.2,0c0,0-7.5-18.8-13.8-34.9l479.4-1.2l40.3-0.1c5.9,0,11.5-2.1,15.1-5.8l20.9-29.7H336.9
		c-2.1-14.8,1.6-27.1,15.4-36.1c32.7-21.4,315.5-166.4,335-176.4c0.7-0.4,1.3-0.9,1.6-1.4L702.6,0l-407,203c0,0-22.6,12-22.2,32.6H0
		l24.2,30.3c3.7,4.6,10.1,7.4,17,7.4l51.4-0.1l194.8-0.4l118.6,272.7c0,0-157.4,296.2-159.5,299.8c-3.1,5.4-7.2,12.4-7.2,12.4
		l13.7-6.2c1.6-0.7,2.9-1.8,3.6-3.2l4.7-8.7l89-168.4c0.7-1.4,2.5-2.3,4.4-2.3h104.5c2,0,30.1,61,47.5,97.9
		c23.3,49.6,50.6,91.5,16.6,113.7c-31.7,20.8-298.7,157.8-332.6,175.2c-2.3,1.2-4.2,2.8-5.4,4.8l-12.3,19.6l407-203
		c0,0,33.4-17.8,18.3-47.2C596.2,825.9,417.2,428.9,362.5,307.4z M452.3,653.1c0.5,1.2-0.6,2.4-2.2,2.4h-84.8
		c-1.7,0-2.9-1.4-2.2-2.6l47.4-87.9c0.8-1.4,3.3-1.3,3.9,0.1L452.3,653.1z"/>
	<path class="st0" d="M1080,288.2c-2.8,6-246.7,557.9-248.1,560.6c-3.8,7.1-12.7,11.7-22.4,11.7h-36.1c-4.5,0-8.9-1-12.6-2.9
		c-2.1-1-3.9-2.3-5.5-3.8c-1.5-1.5-2.8-3.1-3.7-4.9l-84.6-180.1h-58.1c-0.3,0-0.6,0-0.9,0c-3.5-0.3-6.3-2.2-7.6-4.7l-4.3-8.4
		l64.3-0.1L508.7,307.6c-2-4.9-7.6-8.3-14-8.8l-10.3-0.1c-2.3,0-4.6-0.8-6.2-2.1l-7.8-6.6l83.9,0c3.7,0,7,1.8,8.2,4.6l247.2,544.2
		c1.4,2.7,6.3,2.7,7.7,0L1061.6,299c0.4-0.8,1-1.4,1.9-1.9L1080,288.2z"/>
</g>
</svg>
